<svg width="252" height="79" viewBox="0 0 252 79" fill="none" xmlns="http://www.w3.org/2000/svg">
<path fill-rule="evenodd" clip-rule="evenodd" d="M19.1996 45.5762C16.8334 45.5762 14.9116 47.5051 14.9116 49.8803C14.9116 52.2556 16.8334 54.2048 19.1996 54.2048C19.6622 54.2048 20.1174 54.1274 20.5548 53.9814C27.5382 64.7284 41.3951 67.2083 51.5415 61.3918C51.8379 61.2217 51.9535 60.7962 51.7841 60.4985C51.6146 60.2009 51.1907 60.0848 50.8941 60.2549C41.3565 65.7225 28.3357 63.4559 21.7077 53.3724C22.7848 52.587 23.4876 51.3142 23.4876 49.8803C23.4876 47.5051 21.566 45.5762 19.1996 45.5762Z" fill="#FDFDCD"/>
<path fill-rule="evenodd" clip-rule="evenodd" d="M51.541 21.3548C51.0003 21.4237 50.8375 22.3159 51.3186 22.5729C58.9553 27.2465 63.2193 36.3917 61.3507 45.6366C61.1273 45.5985 60.8948 45.5758 60.6631 45.5758C58.2968 45.5758 56.3751 47.5047 56.3751 49.8799C56.3751 52.2551 58.2968 54.2043 60.6631 54.2043C63.0293 54.2043 64.951 52.2551 64.951 49.8799C64.951 48.2015 63.9918 46.7467 62.5846 46.0428C64.6359 36.2105 60.1217 26.4352 51.9861 21.4563C51.8781 21.3874 51.7496 21.3515 51.6218 21.3548C51.5946 21.3531 51.5682 21.3531 51.541 21.3548Z" fill="#FDFDCD"/>
<path fill-rule="evenodd" clip-rule="evenodd" d="M39.9314 14.4116C37.6498 14.4116 35.7949 16.2141 35.6638 18.4721C25.8849 20.2881 18.7596 28.0551 17.1365 37.2723C17.1179 37.3579 17.1167 37.4464 17.133 37.5325C17.1494 37.6186 17.1829 37.7005 17.2316 37.7732C17.2802 37.8459 17.3431 37.908 17.4163 37.9558C17.4895 38.0035 17.5715 38.0359 17.6575 38.051C17.7435 38.066 17.8317 38.0635 17.9167 38.0435C18.0017 38.0235 18.0817 37.9864 18.1521 37.9345C18.2224 37.8827 18.2816 37.817 18.3261 37.7416C18.3705 37.6662 18.3993 37.5825 18.4107 37.4956C19.9353 28.8383 26.5923 21.5336 35.7647 19.7715C36.2348 21.6397 37.927 23.0199 39.9314 23.0199C42.2976 23.0199 44.2194 21.091 44.2194 18.7158C44.2194 16.3405 42.2976 14.4116 39.9314 14.4116Z" fill="#FDFDCD"/>
<path d="M104.396 27.3857L102.283 29.3888C100.764 27.8942 99.1008 26.761 97.2938 25.9892C95.4869 25.2174 93.7197 24.8315 91.9923 24.8315C89.8607 24.8315 87.8302 25.3583 85.9007 26.4119C83.9712 27.4654 82.4736 28.8865 81.4078 30.675C80.3419 32.4636 79.809 34.1664 79.809 35.7835C79.809 37.8416 80.3603 39.7925 81.4629 41.6362C82.5654 43.48 84.0876 44.9255 86.0294 45.973C87.9712 47.0204 90.0936 47.5442 92.3967 47.5441C95.1898 47.5441 97.5573 46.754 99.499 45.1736C101.441 43.5933 102.595 41.5475 102.963 39.0361H94.2711V36.4083H105.995C105.971 40.6225 104.724 43.967 102.256 46.4416C99.787 48.9162 96.4701 50.1536 92.3049 50.1536C87.2821 50.1536 83.3007 48.4385 80.3605 45.0083C78.0941 42.3622 76.9609 39.3057 76.9609 35.8387C76.9609 33.2538 77.6072 30.9507 78.8996 28.9293C80.192 26.908 81.9714 25.2664 84.2378 24.0046C86.5042 22.7427 89.0645 22.1118 91.9189 22.1118C94.222 22.1118 96.3904 22.5313 98.424 23.3705C100.458 24.2097 102.448 25.5481 104.396 27.3857ZM120.254 28.8007C123.353 28.8007 125.926 29.9217 127.972 32.1635C129.822 34.2216 130.747 36.6534 130.747 39.4588C130.747 42.2642 129.767 44.7174 127.806 46.8183C125.846 48.9193 123.329 49.9698 120.254 49.9698C117.167 49.9698 114.646 48.9193 112.692 46.8183C110.738 44.7173 109.761 42.2642 109.761 39.4588C109.761 36.6656 110.686 34.24 112.536 32.1819C114.582 29.9278 117.154 28.8007 120.254 28.8007ZM120.254 31.3373C118.11 31.3373 116.266 32.1336 114.723 33.7261C113.179 35.3187 112.407 37.2421 112.407 39.4962C112.407 40.954 112.76 42.3169 113.464 43.5848C114.168 44.8528 115.121 45.8267 116.321 46.5066C117.522 47.1864 118.833 47.5264 120.254 47.5264C121.699 47.5264 123.019 47.1865 124.214 46.5066C125.408 45.8267 126.355 44.8527 127.053 43.5848C127.751 42.3169 128.1 40.954 128.1 39.4961C128.1 37.242 127.329 35.3186 125.785 33.726C124.241 32.1334 122.398 31.3372 120.254 31.3373ZM142.783 47.1035C141.509 47.7895 140.259 47.8446 139.034 47.2689C137.54 46.1296 136.829 44.5063 136.903 42.3992V33.8727H141.68V31.6492H136.884V21.9099H134.275V42.8401C134.25 44.3102 134.587 45.6578 135.286 46.8828C136.437 48.8307 138.005 49.8597 139.99 49.97C141.043 50.0067 142.244 49.7679 143.592 49.2533C143.383 48.7388 143.114 48.0223 142.783 47.1035ZM147.708 22.0379H150.317V33.4495C151.358 32.0651 152.507 31.03 153.762 30.3439C155.018 29.6579 156.381 29.3149 157.851 29.3149C159.37 29.3149 160.712 29.6977 161.876 30.4634C163.039 31.229 163.897 32.255 164.448 33.5413C164.999 34.8275 165.275 36.855 165.275 39.6237V49.9877H162.702V40.3771C162.702 38.0495 162.604 36.4936 162.408 35.7096C162.09 34.3743 161.508 33.3728 160.663 32.7051C159.817 32.0375 158.709 31.7036 157.337 31.7036C155.769 31.7036 154.363 32.2212 153.119 33.2564C151.876 34.2916 151.058 35.5748 150.666 37.1062C150.433 38.0862 150.317 39.9177 150.317 42.6006V49.9878H147.708L147.708 22.0379ZM171.707 21.5054C172.295 21.5054 172.8 21.7136 173.223 22.1302C173.645 22.5467 173.857 23.049 173.857 23.637C173.857 24.225 173.645 24.7304 173.223 25.153C172.8 25.5756 172.295 25.787 171.707 25.787C171.119 25.787 170.616 25.5756 170.2 25.153C169.783 24.7304 169.575 24.225 169.575 23.637C169.575 23.049 169.783 22.5467 170.2 22.1302C170.616 21.7136 171.119 21.5054 171.707 21.5054ZM170.42 29.7924H173.011V49.9511H170.42V29.7924ZM178.359 42.3074L178.322 40.1574C178.285 39.1038 178.328 38.2095 178.451 37.4745C178.72 35.1591 179.308 33.4624 180.215 32.3843C181.097 31.441 181.997 30.7121 182.916 30.1976C184.435 29.5483 186.169 29.242 188.116 29.2788C189.635 29.2788 191.041 29.6616 192.334 30.4273C193.626 31.1929 194.548 32.222 195.099 33.5144C195.65 34.8068 195.926 36.8312 195.926 39.5876V49.9516H193.353V40.341C193.353 38.0134 193.255 36.4576 193.059 35.6735C192.753 34.3382 192.147 33.3918 191.24 32.8344C190.334 32.277 188.992 31.9983 187.216 31.9983C185.648 31.9983 184.251 32.4516 183.026 33.3581C181.801 34.2647 181.231 35.502 181.317 37.0702C181.084 38.0747 180.968 39.9062 180.968 42.5646V49.9518H178.359L178.359 42.3074ZM221.431 45.3761C221.431 48.206 221.18 50.2763 220.678 51.5872C220.004 53.437 218.825 54.8611 217.141 55.8596C215.456 56.858 213.438 57.3572 211.086 57.3572C209.346 57.3572 207.79 57.1122 206.418 56.6222C205.046 56.1322 203.925 55.4768 203.055 54.656C202.185 53.8352 201.389 52.6346 200.666 51.0542H203.478C204.25 52.3896 205.239 53.3757 206.446 54.0128C207.652 54.6498 209.156 54.9683 210.957 54.9683C212.721 54.9683 214.213 54.6375 215.432 53.976C216.65 53.3145 217.517 52.4875 218.032 51.4952C218.546 50.5028 218.803 48.8918 218.803 46.6622V45.6331C217.836 46.8705 216.644 47.8199 215.229 48.4814C213.814 49.143 212.323 49.4737 210.755 49.4737C208.905 49.4737 207.162 49.0143 205.527 48.0955C203.891 47.1767 202.63 45.9364 201.741 44.3745C200.853 42.8125 200.409 41.1005 200.409 39.2383C200.409 37.3762 200.872 35.6396 201.797 34.0287C202.722 32.4177 204.005 31.1436 205.646 30.2064C207.288 29.2691 209.009 28.8005 210.81 28.8006C212.329 28.8006 213.707 29.0334 214.945 29.4989C215.986 29.8787 217.217 30.6076 218.638 31.6856C219.839 32.6779 220.782 34.5707 221.468 37.3638C221.444 37.7313 221.431 40.4023 221.431 45.3761ZM211.142 31.2996C209.672 31.2996 208.309 31.6549 207.053 32.3654C205.797 33.076 204.811 34.056 204.094 35.3056C203.378 36.5552 203.019 37.9089 203.019 39.3667C203.019 41.5841 203.76 43.4155 205.243 44.8611C206.725 46.3067 208.642 47.0294 210.994 47.0294C213.396 47.0294 215.319 46.3127 216.764 44.8794C218.21 43.4461 218.933 41.5595 218.933 39.2196C218.933 37.7005 218.599 36.3468 217.931 35.1585C217.264 33.9702 216.32 33.03 215.101 32.3379C213.882 31.6457 212.563 31.2997 211.142 31.2996ZM237.07 31.5198L235.416 33.2471C234.02 31.8996 232.666 31.2258 231.355 31.2258C230.51 31.2258 229.787 31.5014 229.187 32.0527C228.587 32.604 228.286 33.2594 228.286 34.0189C228.286 34.6559 228.538 35.2685 229.04 35.8565C229.53 36.4813 230.565 37.1979 232.145 38.0065C234.081 38.9988 235.392 39.9605 236.078 40.8915C236.752 41.8348 237.089 42.8945 237.089 44.0706C237.089 45.7121 236.51 47.1057 235.352 48.2511C234.194 49.3965 232.746 49.9692 231.006 49.9693C229.842 49.9693 228.73 49.7212 227.671 49.225C226.611 48.7289 225.738 48.0336 225.052 47.1393L226.688 45.2834C228.011 46.7779 229.413 47.5252 230.896 47.5252C231.925 47.5252 232.804 47.1914 233.533 46.5237C234.262 45.8561 234.626 45.0751 234.626 44.1808C234.626 43.4335 234.387 42.772 233.909 42.1962C233.432 41.6205 232.347 40.8977 230.657 40.0279C228.832 39.1091 227.594 38.1842 226.945 37.2532C226.283 36.3466 225.953 35.3053 225.953 34.1293C225.953 32.5979 226.476 31.3269 227.524 30.3162C228.571 29.3056 229.885 28.8002 231.465 28.8002C233.315 28.8002 235.184 29.7067 237.07 31.5198Z" fill="#E6E6E6"/>
</svg>
